Coordinates
version=1
nRows=4
nColumns=107
inDegrees=yes

Units are S.I. units (second, meters, Newtons, ...)
If the header above contains a line with 'inDegrees', this indicates whether rotational values are in degrees (yes) or radians (no).

endheader
time	sternoclavicular_r2	sternoclavicular_r3	unrotscap_r3	unrotscap_r2	acromioclavicular_r2	acromioclavicular_r3	acromioclavicular_r1	unrothum_r1	unrothum_r3	unrothum_r2	elv_angle	shoulder_elv	shoulder1_r2	shoulder_rot	elbow_flexion	pro_sup	deviation	flexion	proximal_distal_r1	proximal_distal_r3	cmc_flexion	cmc_abduction	mp_flexion	ip_flexion	mcp2_flexion	mcp2_abduction	pm2_flexion	md2_flexion	mcp3_flexion	mcp3_abduction	pm3_flexion	md3_flexion	mcp4_flexion	mcp4_abduction	pm4_flexion	md4_flexion	mcp5_flexion	mcp5_abduction	pm5_flexion	md5_flexion	bicpt_tx	bicpt_ty	bicpt_tz	bicpt2_tx	bicpt2_ty	bicpt2_tz	ptpt_tx	ptpt_ty	ptpt_tz	FCUpt_tx	FCUpt_ty	FCUpt_tz	EDCpt_tx	EDCpt_ty	EDCpt_tz	APLpt_tx	APLpt_ty	APLpt_tz	FPLpt_tx	FPLpt_ty	FPLpt_tz	FPLpt2_tx	FPLpt2_ty	FPLpt2_tz	PEC1pt2_tx	PEC1pt2_ty	PEC1pt2_tz	PEC1pt3_tx	PEC1pt3_ty	PEC1pt3_tz	PEC2pt2_tx	PEC2pt2_ty	PEC2pt2_tz	PEC2pt3_tx	PEC2pt3_ty	PEC2pt3_tz	PEC3pt2_tx	PEC3pt2_ty	PEC3pt2_tz	PEC3pt3_tx	PEC3pt3_ty	PEC3pt3_tz	DELT2pt2a_tx	DELT2pt2a_ty	DELT2pt2a_tz	DELT2pt2_tx	DELT2pt2_ty	DELT2pt2_tz	LAT1pt2_tx	LAT1pt2_ty	LAT1pt2_tz	LAT1pt3_tx	LAT1pt3_ty	LAT1pt3_tz	LAT2pt2_tx	LAT2pt2_ty	LAT2pt2_tz	LAT2pt3_tx	LAT2pt3_ty	LAT2pt3_tz	LAT3pt2_tx	LAT3pt2_ty	LAT3pt2_tz	LAT3pt3_tx	LAT3pt3_ty	LAT3pt3_tz
      0.00000000	     -0.32821998	      0.13901849	     -0.13901849	      0.32821998	     -0.06645787	      0.53708913	      0.24141787	     -0.24141787	     -0.53708913	      0.06645787	     98.05664641	     77.70899836	     -1.71141133	    -17.04646802	     28.23670935	     37.73708083	      0.22271985	     -0.91397871	      0.26166098	     -0.45698936	      0.03209143	    -14.09250421	    -22.59984475	    -30.88570502	     68.19477864	     12.79005881	     84.60041700	     79.74730785	     78.42302877	      5.48792908	     84.31398092	     54.53816839	     68.95962459	    -10.27305968	     92.28574096	     85.17115222	     71.35639808	    -13.50151430	     94.05353307	      5.28674241	      0.00083398	     -0.03083636	     -0.00482129	      0.01656442	     -0.01787064	     -0.00770807	      0.00476166	     -0.06670299	     -0.00308992	      0.00755319	     -0.18354142	     -0.00036846	     -0.00452844	      0.00128897	      0.00016130	      0.00023559	      0.00009423	      0.00047117	      0.00030155	      0.00090465	      0.00050886	      0.00000099	     -0.00000080	     -0.00000097	      0.00254713	      0.00893654	      0.00621673	     -0.00833214	      0.02011801	     -0.01908189	      0.00254713	      0.00893654	      0.00621673	      0.00056123	      0.01865018	     -0.00979998	      0.00400588	      0.00496950	      0.01610752	      0.00000000	      0.00807825	      0.00000000	     -0.00729602	     -0.03371710	     -0.00666251	      0.01201357	     -0.00034301	     -0.00234335	     -0.00090661	      0.01519644	     -0.00621673	      0.00250396	      0.02193122	     -0.01813211	     -0.00608721	      0.01316737	     -0.00556915	     -0.01269248	      0.02780258	     -0.03112680	     -0.02383078	      0.01472155	     -0.00746870	     -0.01580084	      0.03211975	     -0.03889770
      0.03333333	     -0.32855466	      0.13916025	     -0.13916025	      0.32855466	     -0.06652564	      0.53763679	      0.24166404	     -0.24166404	     -0.53763679	      0.06652564	     97.89147237	     77.78823647	     -1.70852850	    -16.77114555	     28.39613501	     38.10809770	      0.22311457	     -0.91593680	      0.26205251	     -0.45796840	      0.09627621	    -13.64429481	    -22.67822156	    -30.89496940	     68.38328327	     12.70315277	     84.60368352	     79.66725919	     78.53101211	      5.36373738	     84.44678400	     54.54200125	     69.15952185	    -10.28633598	     92.35869279	     85.18064344	     71.25306769	    -13.51402824	     94.07782701	      5.28742591	      0.00083926	     -0.03085463	     -0.00482424	      0.01656680	     -0.01791395	     -0.00766950	      0.00473424	     -0.06672072	     -0.00311981	      0.00759031	     -0.18353391	     -0.00037165	     -0.00457296	      0.00130383	      0.00015904	      0.00023456	      0.00009382	      0.00046912	      0.00030024	      0.00090071	      0.00050665	      0.00000282	     -0.00000240	     -0.00000288	      0.00254973	      0.00894565	      0.00622306	     -0.00834063	      0.02013853	     -0.01910135	      0.00254973	      0.00894565	      0.00622306	      0.00056180	      0.01866919	     -0.00980997	      0.00400883	      0.00497456	      0.01611456	      0.00000000	      0.00809486	      0.00000000	     -0.00730346	     -0.03375148	     -0.00667629	      0.01184338	     -0.00033490	     -0.00226162	     -0.00090753	      0.01521193	     -0.00622306	      0.00250651	      0.02195359	     -0.01815060	     -0.00609342	      0.01318080	     -0.00557483	     -0.01270542	      0.02783093	     -0.03115854	     -0.02385508	      0.01473656	     -0.00747632	     -0.01581695	      0.03215250	     -0.03893737
      0.06666667	     -0.32742113	      0.13868014	     -0.13868014	      0.32742113	     -0.06629612	      0.53578191	      0.24083028	     -0.24083028	     -0.53578191	      0.06629612	     98.25788520	     77.51986321	     -1.71492361	    -18.16265120	     28.23767938	     39.60917202	      0.23208685	     -0.91650583	      0.27088619	     -0.45825291	      1.08657158	    -12.23958554	    -24.55885847	    -31.10999748	     70.50889049	     12.72055427	     84.37177826	     77.76829631	     78.94218689	      4.95957444	     84.32589990	     54.27225890	     70.80826858	    -10.34948175	     92.15102573	     85.37820340	     72.09751361	    -13.51440179	     93.11814895	      5.27964719	      0.00083401	     -0.03083647	     -0.00482131	      0.01657350	     -0.01787090	     -0.00751164	      0.00462333	     -0.06679243	     -0.00324073	      0.00774091	     -0.18350317	     -0.00038359	     -0.00475309	      0.00136437	      0.00014918	      0.00023427	      0.00009371	      0.00046854	      0.00029986	      0.00089959	      0.00050602	      0.00002519	     -0.00002651	     -0.00003181	      0.00254093	      0.00891479	      0.00620159	     -0.00831186	      0.02006905	     -0.01903545	      0.00254093	      0.00891479	      0.00620159	      0.00055987	      0.01860478	     -0.00977612	      0.00399882	      0.00495740	      0.01609066	      0.00000000	      0.00803869	      0.00000000	     -0.00727826	     -0.03363504	     -0.00662968	      0.01269343	     -0.00037619	     -0.00268741	     -0.00090440	      0.01515945	     -0.00620159	      0.00249786	      0.02187785	     -0.01808798	     -0.00607239	      0.01313532	     -0.00555559	     -0.01266159	      0.02773491	     -0.03105104	     -0.02377278	      0.01468572	     -0.00745053	     -0.01576239	      0.03204157	     -0.03880303
      0.10000000	     -0.32773547	      0.13881328	     -0.13881328	      0.32773547	     -0.06635977	      0.53629629	      0.24106149	     -0.24106149	     -0.53629629	      0.06635977	     98.05365439	     77.59428605	     -1.71135911	    -17.91762539	     28.52098257	     39.91838687	      0.22967457	     -0.90623236	      0.26852460	     -0.45311618	      1.01515630	    -12.00952508	    -24.71164901	    -31.76277669	     69.64449154	     12.54783293	     84.65932044	     79.13931057	     79.55274672	      4.68534734	     84.30093899	     56.92148155	     70.65453219	    -10.35271497	     92.49425721	     85.16761815	     72.60356082	    -13.46875828	     96.94803449	      5.71147757	      0.00084339	     -0.03086894	     -0.00482654	      0.01657425	     -0.01794786	     -0.00747874	      0.00460048	     -0.06680721	     -0.00326564	      0.00777202	     -0.18349676	     -0.00038584	     -0.00479020	      0.00137692	      0.00014701	      0.00023945	      0.00009578	      0.00047890	      0.00030649	      0.00091948	      0.00051721	      0.00002397	     -0.00002481	     -0.00002977	      0.00254337	      0.00892335	      0.00620755	     -0.00831984	      0.02008832	     -0.01905372	      0.00254337	      0.00892335	      0.00620755	      0.00056040	      0.01862264	     -0.00978551	      0.00400160	      0.00496216	      0.01609731	      0.00000000	      0.00805425	      0.00000000	     -0.00728525	     -0.03366733	     -0.00664259	      0.01254563	     -0.00036886	     -0.00261009	     -0.00090527	      0.01517401	     -0.00620755	      0.00250026	      0.02189885	     -0.01810535	     -0.00607822	      0.01314793	     -0.00556093	     -0.01267374	      0.02776153	     -0.03108085	     -0.02379560	      0.01469982	     -0.00745768	     -0.01577752	      0.03207233	     -0.03884028
